<?xml version="1.0" encoding="UTF-8"?>
<svg width="68px" height="68px" viewBox="0 0 68 68" version="1.1" xmlns="http://www.w3.org/2000/svg" xmlns:xlink="http://www.w3.org/1999/xlink">
    <title>未到期</title>
    <g id="页面-1" stroke="none" stroke-width="1" fill="none" fill-rule="evenodd">
        <g id="未到期">
            <rect id="矩形" fill="#DAE8FE" x="0" y="0" width="68" height="68" rx="12"></rect>
            <g id="预约保养" transform="translate(5.000000, 4.000000)" fill-rule="nonzero">
                <rect id="矩形" fill="#000000" opacity="0" x="0" y="0" width="60" height="60"></rect>
                <path d="M42.0359766,31.3679883 C47.9159766,31.3679883 52.7040234,36.1559766 52.7040234,42.0359766 C52.7040234,47.9159766 47.9159766,52.7040234 42.0359766,52.7040234 C36.1559766,52.7040234 31.3679883,47.9159766 31.3679883,42.0359766 C31.3679883,36.1559766 36.1559766,31.3679883 42.0359766,31.3679883 M42.0359766,27.7679883 C34.1520117,27.7679883 27.7679883,34.1640234 27.7679883,42.0359766 C27.7679883,49.9079297 34.1640234,56.3040234 42.0359766,56.3040234 C49.9079297,56.3040234 56.3040234,49.9079883 56.3040234,42.0359766 C56.3040234,34.1639648 49.92,27.7679883 42.0359766,27.7679883 Z" id="形状" fill="#0462F7"></path>
                <path d="M49.2240234,44.8679883 L42.0359766,44.8679883 C41.04,44.8679883 40.2359766,44.0640234 40.2359766,43.0679883 L40.2359766,35.9759766 C40.2359766,34.98 41.04,34.1759766 42.0359766,34.1759766 C43.0319531,34.1759766 43.8359766,34.98 43.8359766,35.9759766 L43.8359766,41.2679883 L49.2240234,41.2679883 C50.22,41.2679883 51.0240234,42.0720117 51.0240234,43.0679883 C51.0240234,44.0639648 50.22,44.8679883 49.2240234,44.8679883 L49.2240234,44.8679883 Z" id="路径" fill="#0462F7"></path>
                <path d="M21.6359766,25.5359766 L16.0679883,25.5359766 C15.0720117,25.5359766 14.2679883,24.7320117 14.2679883,23.7359766 C14.2679883,22.7399414 15.0720117,21.9359766 16.0679883,21.9359766 L21.6359766,21.9359766 C22.6320117,21.9359766 23.4359766,22.74 23.4359766,23.7359766 C23.4359766,24.7319531 22.6320117,25.5359766 21.6359766,25.5359766 L21.6359766,25.5359766 Z M21.6359766,34.92 L16.0679883,34.92 C15.0720117,34.92 14.2679883,34.1159766 14.2679883,33.12 C14.2679883,32.1240234 15.0720117,31.32 16.0679883,31.32 L21.6359766,31.32 C22.6320117,31.32 23.4359766,32.1240234 23.4359766,33.12 C23.4359766,34.1159766 22.6320117,34.92 21.6359766,34.92 Z M21.6359766,44.2920117 L16.0679883,44.2920117 C15.0720117,44.2920117 14.2679883,43.4879883 14.2679883,42.4920117 C14.2679883,41.4960352 15.0720117,40.6920117 16.0679883,40.6920117 L21.6359766,40.6920117 C22.6320117,40.6920117 23.4359766,41.4959766 23.4359766,42.4920117 C23.4359766,43.4880469 22.6320117,44.2920117 21.6359766,44.2920117 Z" id="形状" fill="#0462F7"></path>
                <path d="M25.8959766,55.5 L12.5279883,55.5 C7.65597656,55.5 3.68402344,51.54 3.68402344,46.6559766 L3.68402344,17.52 C3.69063382,13.9373255 6.5933021,11.034631 10.1759766,11.0279883 L31.2,11.0279883 C32.82,11.0279883 34.38,11.6279883 35.58,12.7320117 L47.1240234,23.2920117 C47.8240824,23.9713962 47.8560396,25.0846262 47.1961073,25.8030516 C46.5361749,26.521477 45.4242399,26.5839487 44.6879883,25.9439648 L33.1440234,15.384082 C32.6040234,14.8920703 31.92,14.6280469 31.1879883,14.6280469 L10.1879883,14.6280469 C8.59201172,14.6280469 7.29597656,15.924082 7.29597656,17.5200586 L7.29597656,46.6681055 C7.29597656,49.5600586 9.64798828,51.9120703 12.54,51.9120703 L25.9079883,51.9120703 C26.9040234,51.9120703 27.7079883,52.7160352 27.7079883,53.7120703 C27.7079883,54.7081055 26.8920117,55.5 25.8959766,55.5 Z" id="路径" fill="#0462F7"></path>
                <path d="M22.6679883,14.6159766 C21.6720117,14.6159766 20.8679883,13.8120117 20.8679883,12.8159766 L20.8679883,8.78402344 C20.8679883,7.96798828 19.9679883,7.28402344 18.9,7.28402344 L10.1519531,7.28402344 C9.70798828,7.28402344 9.44402344,7.53597656 9.44402344,7.68 L9.44402344,12.8159766 C9.44402344,13.8120117 8.64,14.6159766 7.64402344,14.6159766 C6.64804688,14.6159766 5.84402344,13.8120117 5.84402344,12.8159766 L5.84402344,7.68 C5.84402344,5.47201172 7.77597656,3.68402344 10.1520117,3.68402344 L18.9,3.68402344 C21.9720117,3.68402344 24.4679883,5.96402344 24.4679883,8.78402344 L24.4679883,12.8279883 C24.4679883,13.8120117 23.6640234,14.6159766 22.6679883,14.6159766 Z" id="路径" fill="#0462F7"></path>
            </g>
        </g>
    </g>
</svg>